<?xml version="1.0" encoding="utf-8"?>
<!-- Generator: Adobe Illustrator 16.0.0, SVG Export Plug-In . SVG Version: 6.00 Build 0)  -->
<!DOCTYPE svg PUBLIC "-//W3C//DTD SVG 1.1//EN" "http://www.w3.org/Graphics/SVG/1.1/DTD/svg11.dtd">
<svg version="1.1" xmlns="http://www.w3.org/2000/svg" xmlns:xlink="http://www.w3.org/1999/xlink" x="0px" y="0px"
	 width="998.497px" height="146.644px" viewBox="0 0 998.497 146.644" enable-background="new 0 0 998.497 146.644"
	 xml:space="preserve">
<g id="image" display="none">
	
		<image display="inline" overflow="visible" width="4032" height="3024" xlink:href="scan-logo.JPG"  transform="matrix(0.5304 0 0 0.5304 -562.8853 -701.3335)">
	</image>
</g>
<g id="head">
</g>
<g id="horns">
</g>
<g id="brow_1_">
</g>
<g id="eye">
</g>
<g id="brow">
</g>
<g id="demon">
	<g>
		<path fill="#4DDF60" d="M158.937,83.67c0-1.724-0.083-3.433-0.244-5.122c0.432-15.37,11.637-25.828,11.622-26.014
			c-8.871-1.403-14.409,3.471-17.104,6.856c-2.944-5.954-6.935-11.43-11.776-16.255c12.33-32.118-3.723-43.038-3.82-43.135
			c6.4,8.023-12.197,29.944-12.956,30.833c-10.958-5.815-23.86-9.169-37.672-9.169c-13.838,0-26.763,3.367-37.733,9.202
			c0-0.001,0-0.001,0-0.002c0,0-19.516-22.674-12.984-30.864c-0.097,0.097-16.171,11.032-3.795,43.199h0.001
			c-5.372,5.369-9.693,11.539-12.69,18.275l0,0c0,0-6.719-11.458-19.784-8.337c0,0.195,12.968,10.53,13.747,26.909
			c0.712,14.948-3.527,19.746,2.543,15.207c6.295,28.711,35.553,50.422,70.696,50.422c34.875,0,63.953-21.383,70.547-49.764
			c5.506,3.454,2.391,0.126,1.397-11.398C158.935,84.233,158.937,83.953,158.937,83.67z M117.33,46.507
			c8.873-1.756,10.043,5.167,9.945,9.653V55.77c0,0-0.195-13.65-29.835,7.117C97.439,62.887,108.457,48.262,117.33,46.507z
			 M116.745,63.129c0,0,2.892-4.063,8.58-2.146c5.083,1.714,6.727,10.433,0.683,12.968c-6.046,2.535-23.595,4.291-28.568,1.854
			C97.439,75.804,111.187,70.442,116.745,63.129z M56.885,47.98c8.873,1.754,19.891,16.38,19.891,16.38
			c-29.641-20.768-29.834-7.118-29.834-7.118v0.391C46.844,53.147,48.013,46.225,56.885,47.98z M48.891,60.167
			c5.688-1.917,8.581,2.145,8.581,2.145c5.557,7.312,19.305,12.676,19.305,12.676c-4.973,2.437-22.522,0.682-28.568-1.854
			C42.163,70.6,43.807,61.881,48.891,60.167z M87.099,121.808c0,0-43.809-1.006-43.159-32.075h0.163c0,0,8.125,11.08,22.879,13.744
			c0.033,0,3.998,9.427,9.556,12.579c0,0.033,0.762-8.038,2.241-10.887c1.822,0.602,6.371,2.179,8.321,2.21
			c1.626,0.26,6.5-1.608,8.322-2.21c1.479,2.849,2.241,10.92,2.241,10.887c5.558-3.152,9.523-12.579,9.555-12.579
			c14.755-2.664,22.879-13.744,22.879-13.744h0.163C130.909,120.802,87.099,121.808,87.099,121.808z"/>
		<g>
			<path fill="#4DDF60" d="M266.389,68.855h-30.982V58.037c0-6.819-0.294-11.087-0.883-12.805c-0.589-1.717-1.987-2.576-4.195-2.576
				c-1.914,0-3.214,0.736-3.9,2.208c-0.688,1.472-1.03,5.25-1.03,11.333v57.183c0,5.348,0.342,8.867,1.03,10.561
				c0.687,1.692,2.061,2.539,4.121,2.539c2.256,0,3.79-0.957,4.6-2.87c0.81-1.914,1.214-5.642,1.214-11.187v-14.13h-6.255V80.188
				h36.281v63.953h-19.47l-2.866-8.537c-2.111,3.68-4.775,6.439-7.991,8.279c-3.216,1.84-7.008,2.76-11.378,2.76
				c-5.206,0-10.079-1.264-14.62-3.79c-4.542-2.526-7.991-5.654-10.348-9.383c-2.357-3.729-3.831-7.642-4.419-11.738
				c-0.588-4.096-0.883-10.241-0.883-18.436V67.898c0-11.382,0.613-19.649,1.84-24.801c1.226-5.151,4.747-9.873,10.561-14.167
				c5.814-4.293,13.332-6.439,22.557-6.439c9.076,0,16.606,1.865,22.593,5.593c5.985,3.729,9.886,8.158,11.702,13.284
				c1.814,5.127,2.723,12.573,2.723,22.336V68.855z"/>
			<path fill="#4DDF60" d="M278.385,24.993h21.931c14.62,0,24.518,0.564,29.695,1.693c5.176,1.129,9.395,4.011,12.658,8.647
				c3.262,4.637,4.894,12.033,4.894,22.188c0,9.273-1.153,15.504-3.459,18.693c-2.307,3.19-6.844,5.103-13.615,5.74
				c6.132,1.521,10.253,3.558,12.364,6.108c2.109,2.551,3.422,4.894,3.937,7.028c0.515,2.134,0.773,8.011,0.773,17.626v31.425
				h-28.775v-39.594c0-6.377-0.503-10.327-1.508-11.849c-1.006-1.52-3.643-2.281-7.912-2.281v53.724h-30.983V24.993z
				 M309.368,45.378v26.494c3.483,0,5.924-0.478,7.323-1.435c1.398-0.957,2.097-4.059,2.097-9.31v-6.55
				c0-3.777-0.675-6.255-2.023-7.433C315.414,45.967,312.949,45.378,309.368,45.378z"/>
			<path fill="#4DDF60" d="M359.559,24.993h51.663v23.844h-20.68v22.593h19.355v22.667h-19.355v26.199h22.741v23.845h-53.724V24.993
				z"/>
			<path fill="#4DDF60" d="M422.187,24.993h51.663v23.844h-20.68v22.593h19.354v22.667H453.17v26.199h22.74v23.845h-53.724V24.993z"
				/>
			<path fill="#4DDF60" d="M553.992,24.993v119.148h-27.155L510.72,89.976v54.166h-25.905V24.993h25.905l17.368,53.65v-53.65
				H553.992z"/>
			<path fill="#4DDF60" d="M592.997,24.993h23.183c14.963,0,25.082,0.688,30.356,2.061c5.273,1.375,9.285,3.631,12.033,6.771
				c2.747,3.14,4.464,6.636,5.151,10.487c0.687,3.852,1.03,11.419,1.03,22.704v41.728c0,10.696-0.504,17.847-1.509,21.452
				c-1.006,3.606-2.76,6.429-5.262,8.464c-2.502,2.036-5.593,3.459-9.272,4.269s-9.225,1.214-16.633,1.214h-39.078V24.993z
				 M623.98,45.378v78.377c4.464,0,7.212-0.895,8.242-2.686s1.546-6.66,1.546-14.608V60.171c0-5.396-0.173-8.855-0.516-10.376
				c-0.344-1.521-1.129-2.637-2.355-3.349C629.671,45.735,627.365,45.378,623.98,45.378z"/>
			<path fill="#4DDF60" d="M676.305,24.993h51.663v23.844h-20.68v22.593h19.354v22.667h-19.354v26.199h22.74v23.845h-53.724V24.993z
				"/>
			<path fill="#4DDF60" d="M834.531,24.993v119.148h-27.083l-0.037-80.438l-10.781,80.438h-19.208l-11.37-78.598l-0.036,78.598
				h-27.083V24.993h40.09c1.189,7.164,2.415,15.606,3.678,25.33L787.1,80.63l7.12-55.637H834.531z"/>
			<path fill="#4DDF60" d="M917.766,94.76c0,11.973-0.282,20.448-0.846,25.427c-0.564,4.98-2.331,9.53-5.299,13.652
				c-2.97,4.121-6.98,7.285-12.033,9.493c-5.054,2.208-10.94,3.312-17.662,3.312c-6.378,0-12.106-1.043-17.184-3.128
				c-5.078-2.084-9.163-5.212-12.254-9.383c-3.091-4.17-4.931-8.708-5.52-13.614s-0.883-13.492-0.883-25.759V74.375
				c0-11.971,0.281-20.446,0.847-25.427c0.563-4.979,2.329-9.53,5.298-13.651s6.979-7.286,12.033-9.494
				c5.053-2.208,10.939-3.312,17.662-3.312c6.377,0,12.106,1.043,17.185,3.127c5.077,2.086,9.162,5.214,12.253,9.383
				c3.091,4.171,4.931,8.709,5.52,13.615c0.589,4.907,0.883,13.493,0.883,25.758V94.76z M886.783,55.608
				c0-5.543-0.308-9.088-0.92-10.634c-0.614-1.546-1.877-2.318-3.79-2.318c-1.619,0-2.858,0.625-3.717,1.876
				s-1.288,4.943-1.288,11.076v55.637c0,6.918,0.282,11.187,0.847,12.806c0.563,1.619,1.877,2.429,3.938,2.429
				c2.108,0,3.459-0.932,4.048-2.797c0.588-1.864,0.883-6.304,0.883-13.32V55.608z"/>
			<path fill="#4DDF60" d="M998.497,24.993v119.148h-27.155l-16.117-54.166v54.166h-25.905V24.993h25.905l17.368,53.65v-53.65
				H998.497z"/>
		</g>
	</g>
</g>
</svg>
