<?xml version="1.0" encoding="utf-8"?>
<!-- Generator: Adobe Illustrator 16.0.0, SVG Export Plug-In . SVG Version: 6.00 Build 0)  -->
<!DOCTYPE svg PUBLIC "-//W3C//DTD SVG 1.1//EN" "http://www.w3.org/Graphics/SVG/1.1/DTD/svg11.dtd">
<svg version="1.1" xmlns="http://www.w3.org/2000/svg" xmlns:xlink="http://www.w3.org/1999/xlink" x="0px" y="0px"
	 width="170.315px" height="145.676px" viewBox="0 0 170.315 145.676" enable-background="new 0 0 170.315 145.676"
	 xml:space="preserve">
<g id="image" display="none">
	
		<image display="inline" overflow="visible" width="4032" height="3024" xlink:href="scan-logo.JPG"  transform="matrix(0.5304 0 0 0.5304 -562.8853 -701.3335)">
	</image>
</g>
<g id="head">
</g>
<g id="horns">
</g>
<g id="brow_1_">
</g>
<g id="eye">
</g>
<g id="brow">
</g>
<g id="demon">
	<g>
		<path fill="#4DDF60" d="M158.937,83.67c0-1.724-0.083-3.433-0.244-5.122c0.432-15.37,11.637-25.828,11.622-26.014
			c-8.871-1.403-14.409,3.471-17.104,6.856c-2.944-5.954-6.935-11.43-11.776-16.255c12.33-32.118-3.723-43.038-3.82-43.135
			c6.4,8.023-12.197,29.944-12.956,30.833c-10.958-5.815-23.86-9.169-37.672-9.169c-13.838,0-26.763,3.367-37.733,9.202
			c0-0.001,0-0.001,0-0.002c0,0-19.516-22.674-12.984-30.864c-0.097,0.097-16.171,11.032-3.795,43.199h0.001
			c-5.372,5.369-9.693,11.539-12.69,18.275l0,0c0,0-6.719-11.458-19.784-8.337c0,0.195,12.968,10.53,13.747,26.909
			c0.712,14.948-3.527,19.746,2.543,15.207c6.295,28.711,35.553,50.422,70.696,50.422c34.875,0,63.953-21.383,70.547-49.764
			c5.506,3.454,2.391,0.126,1.397-11.398C158.935,84.233,158.937,83.953,158.937,83.67z M117.33,46.507
			c8.873-1.756,10.043,5.167,9.945,9.653V55.77c0,0-0.195-13.65-29.835,7.117C97.439,62.887,108.457,48.262,117.33,46.507z
			 M116.745,63.129c0,0,2.892-4.063,8.58-2.146c5.083,1.714,6.727,10.433,0.683,12.968c-6.046,2.535-23.595,4.291-28.568,1.854
			C97.439,75.804,111.187,70.442,116.745,63.129z M56.885,47.98c8.873,1.754,19.891,16.38,19.891,16.38
			c-29.641-20.768-29.834-7.118-29.834-7.118v0.391C46.844,53.147,48.013,46.225,56.885,47.98z M48.891,60.167
			c5.688-1.917,8.581,2.145,8.581,2.145c5.557,7.312,19.305,12.676,19.305,12.676c-4.973,2.437-22.522,0.682-28.568-1.854
			C42.163,70.6,43.807,61.881,48.891,60.167z M87.099,121.808c0,0-43.809-1.006-43.159-32.075h0.163c0,0,8.125,11.08,22.879,13.744
			c0.033,0,3.998,9.427,9.556,12.579c0,0.033,0.762-8.038,2.241-10.887c1.822,0.602,6.371,2.179,8.321,2.21
			c1.626,0.26,6.5-1.608,8.322-2.21c1.479,2.849,2.241,10.92,2.241,10.887c5.558-3.152,9.523-12.579,9.555-12.579
			c14.755-2.664,22.879-13.744,22.879-13.744h0.163C130.909,120.802,87.099,121.808,87.099,121.808z"/>
	</g>
</g>
</svg>
